# xmcd
#
# Track frame offsets:
#	150
#	14912
#	32100
#	46678
#	63038
#	80394
#	95784
#	113097
#	130547
#	145611
#	166524
#	184771
#	199161
#	220933
#	236348
#	256256
#	273119
#	291233
#	311669
#
# Disc length: 4395 seconds
#
# Revision: 0
# Processed by: cddbd v1.5.2PL0 Copyright (c) Steve Scherf et al.
# Submitted via: EZCDAudioConverter 4.0.9.1
#
DISCID=01112913
DTITLE=陈慧琳 - 爱
DYEAR=1900
DGENRE=流行
TTITLE0=Shake Shake
TTITLE1=好比我丑
TTITLE2=爱一个人（陈慧琳、李克勤）
TTITLE3=心服口服
TTITLE4=临走前吻我
TTITLE5=佛洛依德笑我
TTITLE6=来生也想做女人
TTITLE7=爱
TTITLE8=不要保护我
TTITLE9=Lover‘s Queen
TTITLE10=情奖赏
TTITLE11=爱一个人（SOLO VERSION）
TTITLE12=心口不一
TTITLE13=丘比特笑了
TTITLE14=我要的只是爱
TTITLE15=躲猫猫
TTITLE16=逃出生天
TTITLE17=幸福灰尘
TTITLE18=是有故事的旅行（李泉、陈慧琳）
EXTD=
EXTT0=
EXTT1=
EXTT2=
EXTT3=
EXTT4=
EXTT5=
EXTT6=
EXTT7=
EXTT8=
EXTT9=
EXTT10=
EXTT11=
EXTT12=
EXTT13=
EXTT14=
EXTT15=
EXTT16=
EXTT17=
EXTT18=
PLAYORDER=
